# xmcd
#
# Track frame offsets: 
#        150
#        2812
#        11764
#        15401
#        27471
#        42389
#        52615
#        67999
#        74014
#        85853
#        97146
#        112596
#        124829
#        148356
#        164139
#        173192
#        185698
#        200319
#
# Disc length: 2702 seconds
#
# Revision: 0
# Processed by: cddbd v1.5.2PL0 Copyright (c) Steve Scherf et al.
# Submitted via: ExactAudioCopyFreeDBPlugin 1.0
#
DISCID=fa0a8c12
DTITLE=Timi Hendrix - Tim Weitkamp - Das Musical
DYEAR=2018
DGENRE=Hip-Hop
TTITLE0=Das Kunterbunte Haus
TTITLE1=Mein Musical Läuft
TTITLE2=7483
TTITLE3=Der Kaiser von China 2ta Teil
TTITLE4=We Are Family
TTITLE5=Gerade Frisch Gewickelt
TTITLE6=Schule
TTITLE7=Tijuana
TTITLE8=Ich Kill Wen Ich Will
TTITLE9=1 Millionen Messer
TTITLE10=Autist
TTITLE11=Psycho
TTITLE12=Dämonen
TTITLE13=Exitknopf
TTITLE14=Utopie
TTITLE15=Wenn Ich Könnte
TTITLE16=Tausend Zweite Chancen
TTITLE17=Ende
EXTD=
EXTT0=
EXTT1=
EXTT2=
EXTT3=
EXTT4=
EXTT5=
EXTT6=
EXTT7=
EXTT8=
EXTT9=
EXTT10=
EXTT11=
EXTT12=
EXTT13=
EXTT14=
EXTT15=
EXTT16=
EXTT17=
PLAYORDER=
